<svg xmlns="http://www.w3.org/2000/svg" viewBox="0 0 39.17 84.31"><defs><style>.cls-1{fill:#fff;fill-rule:evenodd;}</style></defs><title>Facebook</title><g id="Layer_2" data-name="Layer 2"><g id="Layer_1-2" data-name="Layer 1"><path class="cls-1" d="M8.63,42.49V83.25a1.06,1.06,0,0,0,1.06,1.06H24.83a1.05,1.05,0,0,0,1.06-1.06V41.82h11a1,1,0,0,0,1.05-1L39,28.37a1.06,1.06,0,0,0-1.06-1.15h-12V18.36a3.75,3.75,0,0,1,3.76-3.75h8.46a1.07,1.07,0,0,0,1.06-1.07V1.06A1.07,1.07,0,0,0,38.11,0H23.82A15.19,15.19,0,0,0,8.63,15.19v12H1.06A1.06,1.06,0,0,0,0,28.28V40.76a1.06,1.06,0,0,0,1.06,1.06H8.63Z"/></g></g></svg>