<svg xmlns="http://www.w3.org/2000/svg" viewBox="0 0 74.17 70.84"><defs><style>.cls-1{fill:#fff;}</style></defs><title>Linkedin</title><g id="Layer_2" data-name="Layer 2"><g id="Layer_1-2" data-name="Layer 1"><path class="cls-1" d="M74.17,43.45V69.66A1.18,1.18,0,0,1,73,70.84H59.46a1.17,1.17,0,0,1-1.17-1.18V45.28c0-6.41-2.29-10.8-8-10.8a8.69,8.69,0,0,0-8.15,5.81,10.82,10.82,0,0,0-.53,3.87v25.5a1.17,1.17,0,0,1-1.17,1.18H26.87a1.17,1.17,0,0,1-1.17-1.18c0-6.49.17-38,0-45.4a1.15,1.15,0,0,1,1.17-1.18H40.4a1.17,1.17,0,0,1,1.18,1.17v5.59l-.11.16h.11v-.16C43.69,26.6,47.45,22,55.89,22,66.33,22,74.17,28.78,74.17,43.45ZM15.74,23.08H2.21A1.17,1.17,0,0,0,1,24.25V69.66a1.17,1.17,0,0,0,1.17,1.18H15.74a1.17,1.17,0,0,0,1.17-1.18V24.25A1.17,1.17,0,0,0,15.74,23.08ZM8.5,0A8.5,8.5,0,1,0,17,8.5,8.51,8.51,0,0,0,8.5,0Z"/></g></g></svg>