<svg xmlns="http://www.w3.org/2000/svg" viewBox="0 0 81.98 67.52"><defs><style>.cls-1{fill:#fff;}</style></defs><title>Twitter</title><g id="Layer_2" data-name="Layer 2"><g id="Layer_1-2" data-name="Layer 1"><path class="cls-1" d="M81.67,8.09a33.66,33.66,0,0,1-8.28,2.37c1.33-.23,3.3-2.64,4.08-3.62a15.23,15.23,0,0,0,2.76-5c.07-.14.13-.32,0-.43a.45.45,0,0,0-.44,0,42.36,42.36,0,0,1-9.84,3.76A.66.66,0,0,1,69.26,5a7.18,7.18,0,0,0-.86-.88,17.68,17.68,0,0,0-4.76-2.92A16.63,16.63,0,0,0,56.33,0,17.48,17.48,0,0,0,49.4,2a18.08,18.08,0,0,0-5.6,4.57,17.22,17.22,0,0,0-3.34,6.69,18.1,18.1,0,0,0-.17,7.07c.05.39,0,.44-.34.39-13.51-2-24.71-6.85-33.8-17.2-.4-.45-.61-.45-.93,0-4,6-2,15.54,2.92,20.25.66.63,1.34,1.26,2.07,1.83a17.28,17.28,0,0,1-6.52-1.83c-.39-.25-.59-.11-.63.34a10.78,10.78,0,0,0,.11,1.94A17.35,17.35,0,0,0,13.85,39.89a10.88,10.88,0,0,0,2.17.66,19.6,19.6,0,0,1-6.4.2c-.46-.09-.64.14-.46.59C12,49,18.05,51.29,22.6,52.59c.61.11,1.22.11,1.83.25,0,.06-.08.06-.11.11-1.51,2.3-6.74,4-9.18,4.86A32.89,32.89,0,0,1,1.2,59.6c-.75-.11-.91-.1-1.11,0s0,.3.21.5c1,.63,1.92,1.18,2.91,1.72a45.82,45.82,0,0,0,9.32,3.73c16.74,4.62,35.61,1.22,48.18-11.27,9.88-9.81,13.34-23.34,13.34-36.89,0-.53.62-.82,1-1.1a32.26,32.26,0,0,0,6.53-6.82A2,2,0,0,0,82,8.16V8.09C82,7.88,82,7.94,81.67,8.09Z"/></g></g></svg>