<svg xmlns="http://www.w3.org/2000/svg" viewBox="0 0 84.93 84.93"><defs><style>.cls-1{fill:#fff;fill-rule:evenodd;}</style></defs><title>Whatsapp</title><g id="Layer_2" data-name="Layer 2"><g id="Layer_1-2" data-name="Layer 1"><path class="cls-1" d="M42.46,0A42.46,42.46,0,0,0,6.78,65.48L.33,79.69a3.69,3.69,0,0,0,4.36,5.1l17.77-4.87A42.46,42.46,0,1,0,42.46,0Zm0,77.51a35,35,0,0,1-17.64-4.77A3.68,3.68,0,0,0,23,72.23a4.2,4.2,0,0,0-1,.13L10.35,75.55l4.05-8.91a3.7,3.7,0,0,0-.37-3.7A35,35,0,1,1,42.46,77.51Zm21.2-24.44a5.1,5.1,0,0,1-.36,3c-1.31,3.16-4.54,5.19-7.83,5.82s-5.73-.41-8.63-1.37A36,36,0,0,1,39.42,57a42.57,42.57,0,0,1-11.89-11c-1-1.34-1.9-2.74-2.74-4.17a23,23,0,0,1-2.62-6.05A12,12,0,0,1,21.83,33a10.9,10.9,0,0,1,3.77-8.63A4.94,4.94,0,0,1,31,23.56c1.81,1,2.76,3.61,3.6,5.43.66,1.42,1.41,3.29,1.14,4.88S34.17,36.81,33.17,38A1.71,1.71,0,0,0,33,40.34a28.06,28.06,0,0,0,14,12,1.55,1.55,0,0,0,2-.43c1-1.29,2.06-3.8,3.67-4.46,2.1-.86,4.41.33,6.19,1.39S63.21,51,63.66,53.07Z"/></g></g></svg>