<svg xmlns="http://www.w3.org/2000/svg" viewBox="0 0 87.95 87.95"><defs><style>.cls-1{fill:#fff;}</style></defs><title>Instagram</title><g id="Layer_2" data-name="Layer 2"><g id="Layer_1-2" data-name="Layer 1"><path class="cls-1" d="M67.11,16.19a5.17,5.17,0,1,0,5.17,5.17A5.17,5.17,0,0,0,67.11,16.19Zm-23,6.63A21.72,21.72,0,1,0,65.84,44.54,21.75,21.75,0,0,0,44.12,22.82Zm0,35.63A13.91,13.91,0,1,1,58,44.54,13.93,13.93,0,0,1,44.12,58.45ZM88,26.49A26.49,26.49,0,0,0,61.46,0h-35A26.49,26.49,0,0,0,0,26.49v35A26.49,26.49,0,0,0,26.49,88h35A26.49,26.49,0,0,0,88,61.46Zm-8.3,35A18.18,18.18,0,0,1,61.46,79.65h-35A18.18,18.18,0,0,1,8.3,61.46v-35A18.18,18.18,0,0,1,26.49,8.3h35A18.18,18.18,0,0,1,79.65,26.49Z"/></g></g></svg>