<svg xmlns="http://www.w3.org/2000/svg" viewBox="0 0 86.66 44.22"><defs><style>.cls-1{fill:none;stroke:#fff;stroke-miterlimit:10;}.cls-2{fill:#fff;}</style></defs><title>Ads</title><g id="Layer_2" data-name="Layer 2"><g id="Layer_1-2" data-name="Layer 1"><rect class="cls-1" x="0.5" y="0.5" width="85.66" height="43.22" rx="5.4"/><path class="cls-2" d="M34.15,28.94H21.43l-2.51,5.89H14L25.5,9.38h4.65L41.64,34.83H36.7Zm-1.56-3.7-4.8-11.13L23,25.24Z"/><path class="cls-2" d="M47.6,9.38H58.73A16,16,0,0,1,66,11a11.72,11.72,0,0,1,4.91,4.48,12.67,12.67,0,0,1,1.75,6.67,12.69,12.69,0,0,1-1.75,6.67A11.63,11.63,0,0,1,66,33.25a15.89,15.89,0,0,1-7.23,1.58H47.6ZM58.51,30.83a10.75,10.75,0,0,0,4.93-1.07,7.66,7.66,0,0,0,3.27-3.05,9.07,9.07,0,0,0,1.14-4.6,9,9,0,0,0-1.14-4.6,7.66,7.66,0,0,0-3.27-3.05,10.75,10.75,0,0,0-4.93-1.08H52.33V30.83Z"/></g></g></svg>