<svg xmlns="http://www.w3.org/2000/svg" viewBox="0 0 88 88"><defs><style>.cls-1,.cls-2{fill:#fff;}.cls-1{opacity:0;}.cls-2{fill-rule:evenodd;}</style></defs><title>Asset 14</title><g id="Layer_2" data-name="Layer 2"><g id="Layer_1-2" data-name="Layer 1"><rect class="cls-1" width="88" height="88"/><path class="cls-2" d="M33.05,44.33V85.1a1.06,1.06,0,0,0,1.06,1.06H49.25a1.07,1.07,0,0,0,1.06-1.06V43.67h11a1.07,1.07,0,0,0,1.06-1l1-12.49a1.05,1.05,0,0,0-1-1.15h-12V20.21a3.75,3.75,0,0,1,3.75-3.76h8.46a1.06,1.06,0,0,0,1.06-1.06V2.9a1.06,1.06,0,0,0-1.06-1.06H48.23A15.18,15.18,0,0,0,33.05,17v12H25.48a1.06,1.06,0,0,0-1.06,1.06V42.61a1.06,1.06,0,0,0,1.06,1.06h7.57Z"/></g></g></svg>