<svg xmlns="http://www.w3.org/2000/svg" viewBox="0 0 88 88"><defs><style>.cls-1,.cls-2{fill:#fff;}.cls-1{opacity:0;}</style></defs><title>Asset 13</title><g id="Layer_2" data-name="Layer 2"><g id="Layer_1-2" data-name="Layer 1"><rect class="cls-1" width="88" height="88"/><path class="cls-2" d="M67.14,16.22a5.17,5.17,0,1,0,5.17,5.17A5.16,5.16,0,0,0,67.14,16.22Zm-23,6.63A21.72,21.72,0,1,0,65.87,44.57,21.74,21.74,0,0,0,44.15,22.85Zm0,35.63A13.92,13.92,0,1,1,58.06,44.57,13.93,13.93,0,0,1,44.15,58.48ZM88,26.52A26.49,26.49,0,0,0,61.48,0h-35A26.49,26.49,0,0,0,0,26.52v35A26.49,26.49,0,0,0,26.52,88h35A26.49,26.49,0,0,0,88,61.48Zm-8.29,35a18.2,18.2,0,0,1-18.2,18.2h-35a18.2,18.2,0,0,1-18.2-18.2v-35a18.2,18.2,0,0,1,18.2-18.2h35a18.2,18.2,0,0,1,18.2,18.2Z"/></g></g></svg>