<svg xmlns="http://www.w3.org/2000/svg" viewBox="0 0 88 88"><defs><style>.cls-1,.cls-2{fill:#fff;}.cls-1{opacity:0;}</style></defs><title>Asset 12</title><g id="Layer_2" data-name="Layer 2"><g id="Layer_1-2" data-name="Layer 1"><rect class="cls-1" width="88" height="88"/><path class="cls-2" d="M86,53.1V82.81a1.32,1.32,0,0,1-1.33,1.33H69.36A1.33,1.33,0,0,1,68,82.81V55.18c0-7.27-2.6-12.24-9.11-12.24-5,0-7.93,3.35-9.23,6.58a12.22,12.22,0,0,0-.6,4.39v28.9a1.33,1.33,0,0,1-1.33,1.33H32.42a1.31,1.31,0,0,1-1.32-1.33c0-7.36.19-43.06,0-51.45A1.32,1.32,0,0,1,32.46,30h15.3a1.32,1.32,0,0,1,1.33,1.33v6.34a1.88,1.88,0,0,0-.12.18h.12v-.18c2.39-3.68,6.66-8.94,16.22-8.94C77.15,28.74,86,36.48,86,53.1ZM19.81,30H4.47a1.33,1.33,0,0,0-1.33,1.33V82.81a1.33,1.33,0,0,0,1.33,1.33H19.81a1.33,1.33,0,0,0,1.33-1.33V31.34A1.33,1.33,0,0,0,19.81,30ZM11.6,3.86a9.63,9.63,0,1,0,9.64,9.63A9.63,9.63,0,0,0,11.6,3.86Z"/></g></g></svg>