<svg xmlns="http://www.w3.org/2000/svg" viewBox="0 0 88 88"><defs><style>.cls-1,.cls-2{fill:#fff;}.cls-1{opacity:0;}</style></defs><title>Asset 15</title><g id="Layer_2" data-name="Layer 2"><g id="Layer_1-2" data-name="Layer 1"><rect class="cls-1" width="88" height="88"/><path class="cls-2" d="M84.68,18.33A33.53,33.53,0,0,1,76.4,20.7c1.33-.23,3.3-2.64,4.09-3.62a15.21,15.21,0,0,0,2.75-5c.08-.14.13-.32,0-.43a.45.45,0,0,0-.44,0A42.19,42.19,0,0,1,73,15.43a.67.67,0,0,1-.68-.18,7.18,7.18,0,0,0-.86-.88,17.53,17.53,0,0,0-4.76-2.92,16.63,16.63,0,0,0-7.31-1.18,17.52,17.52,0,0,0-6.93,2,17.93,17.93,0,0,0-5.59,4.57,17.08,17.08,0,0,0-3.34,6.69,18,18,0,0,0-.18,7.06c.05.4,0,.45-.34.4-13.51-2-24.71-6.85-33.8-17.21-.4-.44-.61-.44-.93,0-4,6-2.05,15.54,2.92,20.25a26.15,26.15,0,0,0,2.08,1.83A17.48,17.48,0,0,1,6.7,34c-.39-.25-.59-.11-.62.34a9.9,9.9,0,0,0,.1,1.94A17.34,17.34,0,0,0,16.86,50.12a10.47,10.47,0,0,0,2.17.67,19.39,19.39,0,0,1-6.4.19c-.46-.08-.64.15-.46.6,2.81,7.67,8.89,10,13.44,11.25.61.11,1.22.11,1.83.25,0,.06-.07.06-.11.11-1.51,2.3-6.74,4-9.18,4.86A32.87,32.87,0,0,1,4.21,69.84c-.75-.11-.91-.1-1.11,0s0,.3.22.5c.95.63,1.91,1.18,2.9,1.72a46.05,46.05,0,0,0,9.32,3.73C32.28,80.41,51.15,77,63.72,64.52c9.88-9.81,13.34-23.34,13.34-36.89,0-.53.62-.82,1-1.1a32.21,32.21,0,0,0,6.52-6.82A2,2,0,0,0,85,18.4v-.07C85,18.12,85,18.18,84.68,18.33Z"/></g></g></svg>