<svg xmlns="http://www.w3.org/2000/svg" viewBox="0 0 88 88"><defs><style>.cls-1,.cls-2{fill:#fff;}.cls-1{opacity:0;}.cls-2{fill-rule:evenodd;}</style></defs><title>Asset 17</title><g id="Layer_2" data-name="Layer 2"><g id="Layer_1-2" data-name="Layer 1"><rect class="cls-1" width="88" height="88"/><path class="cls-2" d="M44,1.54A42.45,42.45,0,0,0,8.32,67L1.87,81.22a3.71,3.71,0,0,0,4.36,5.11L24,81.45A42.46,42.46,0,1,0,44,1.54Zm0,77.51a35.06,35.06,0,0,1-17.65-4.77,3.65,3.65,0,0,0-1.87-.51,3.62,3.62,0,0,0-1,.13L11.89,77.09l4-8.91a3.72,3.72,0,0,0-.36-3.7A35,35,0,1,1,44,79.05ZM65.2,54.61a5.07,5.07,0,0,1-.37,3c-1.3,3.17-4.54,5.2-7.82,5.82S51.28,63,48.38,62A35.3,35.3,0,0,1,41,58.51a42.14,42.14,0,0,1-11.89-11,47.36,47.36,0,0,1-2.74-4.16,22.64,22.64,0,0,1-2.63-6.06,12.52,12.52,0,0,1-.34-2.73,10.91,10.91,0,0,1,3.78-8.63,5,5,0,0,1,5.36-.8c1.82,1,2.76,3.62,3.61,5.44.66,1.42,1.4,3.28,1.13,4.88s-1.53,2.94-2.54,4.12a1.71,1.71,0,0,0-.21,2.34,28,28,0,0,0,14,12,1.52,1.52,0,0,0,2-.43c1-1.28,2.07-3.8,3.68-4.46,2.09-.85,4.41.33,6.19,1.4S64.75,52.57,65.2,54.61Z"/></g></g></svg>