<svg xmlns="http://www.w3.org/2000/svg" viewBox="0 0 88 88"><defs><style>.cls-1,.cls-2{fill:#fff;}.cls-1{opacity:0;}</style></defs><title>Asset 16</title><g id="Layer_2" data-name="Layer 2"><g id="Layer_1-2" data-name="Layer 1"><rect class="cls-1" width="88" height="88"/><path class="cls-2" d="M85.49,33A18.07,18.07,0,0,0,67.42,15H20.58A18.07,18.07,0,0,0,2.51,33V55A18.07,18.07,0,0,0,20.58,73H67.42A18.07,18.07,0,0,0,85.49,55ZM55.93,45.11,37.25,55.35c-.82.44-1.55-.15-1.55-1.07v-21c0-.94.76-1.52,1.57-1.06L56.08,43A1.23,1.23,0,0,1,55.93,45.11Z"/></g></g></svg>